<mxfile host="65bd71144e">
    <diagram id="JY8MxIqN7iiSgSnqV1IB" name="Page-1">
        <mxGraphModel dx="780" dy="581" grid="1" gridSize="10" guides="1" tooltips="1" connect="1" arrows="1" fold="1" page="1" pageScale="1" pageWidth="850" pageHeight="1100" math="0" shadow="0">
            <root>
                <mxCell id="0"/>
                <mxCell id="1" parent="0"/>
                <mxCell id="7" value="&lt;b&gt;id&lt;/b&gt;&lt;div&gt;imie: varchar&lt;/div&gt;&lt;div&gt;nazwisko: varchar&lt;/div&gt;&lt;div&gt;tytul: enum&lt;/div&gt;&lt;div&gt;stanowisko: enum&lt;/div&gt;&lt;div&gt;asystent (FK)&lt;/div&gt;&lt;div&gt;wydzialZatr (FK)&lt;/div&gt;" style="rounded=0;whiteSpace=wrap;html=1;align=left;" parent="1" vertex="1">
                    <mxGeometry x="535.24" y="110" width="120" height="120" as="geometry"/>
                </mxCell>
                <mxCell id="8" value="Pedagodzy" style="rounded=0;whiteSpace=wrap;html=1;" parent="1" vertex="1">
                    <mxGeometry x="535.24" y="90" width="120" height="20" as="geometry"/>
                </mxCell>
                <mxCell id="9" value="&lt;b&gt;id&lt;/b&gt;&lt;div&gt;nazwa: varchar&lt;/div&gt;&lt;div&gt;poziomRok: enum&lt;/div&gt;&lt;div&gt;czasTrwaniaZ: integer&lt;/div&gt;&lt;div&gt;czasTrwaniaL: integer&lt;/div&gt;" style="rounded=0;whiteSpace=wrap;html=1;align=left;" parent="1" vertex="1">
                    <mxGeometry x="174" y="110" width="120" height="80" as="geometry"/>
                </mxCell>
                <mxCell id="10" value="Przedmioty" style="rounded=0;whiteSpace=wrap;html=1;" parent="1" vertex="1">
                    <mxGeometry x="174" y="90" width="120" height="20" as="geometry"/>
                </mxCell>
                <mxCell id="11" value="&lt;div&gt;&lt;b&gt;nrIndeksu&lt;/b&gt;&lt;/div&gt;imie: varchar&lt;div&gt;nazwisko: varchar&lt;/div&gt;&lt;div&gt;stopien: enum&lt;/div&gt;&lt;div&gt;semestr: integer&lt;/div&gt;&lt;div&gt;kierunek: varchar&lt;/div&gt;&lt;div&gt;aktywny: boolean&lt;/div&gt;&lt;div&gt;&lt;span style=&quot;color: rgb(63, 63, 63);&quot;&gt;wydzial (FK)&lt;/span&gt;&lt;br&gt;&lt;/div&gt;" style="rounded=0;whiteSpace=wrap;html=1;align=left;" parent="1" vertex="1">
                    <mxGeometry x="356.89" y="270" width="120" height="130" as="geometry"/>
                </mxCell>
                <mxCell id="12" value="Studenci" style="rounded=0;whiteSpace=wrap;html=1;" parent="1" vertex="1">
                    <mxGeometry x="356.89" y="250" width="120" height="20" as="geometry"/>
                </mxCell>
                <mxCell id="13" value="tytul: lic, mgr, dr, dr hab, prof AMKL, prof" style="text;html=1;align=left;verticalAlign=middle;whiteSpace=wrap;rounded=0;" parent="1" vertex="1">
                    <mxGeometry x="40" y="480" width="230" height="30" as="geometry"/>
                </mxCell>
                <mxCell id="14" value="stanowisko: wykł, st. wykł, as, adj, prof AMKL, prof, UCP" style="text;html=1;align=left;verticalAlign=middle;whiteSpace=wrap;rounded=0;" parent="1" vertex="1">
                    <mxGeometry x="40" y="510" width="310" height="30" as="geometry"/>
                </mxCell>
                <mxCell id="15" value="stopien: I, II" style="text;html=1;align=left;verticalAlign=middle;whiteSpace=wrap;rounded=0;" parent="1" vertex="1">
                    <mxGeometry x="40" y="540" width="210" height="30" as="geometry"/>
                </mxCell>
                <mxCell id="17" value="poziomRok: L1, L2, L3, M1, M2" style="text;html=1;align=left;verticalAlign=middle;whiteSpace=wrap;rounded=0;" parent="1" vertex="1">
                    <mxGeometry x="40" y="570" width="300" height="30" as="geometry"/>
                </mxCell>
                <mxCell id="19" value="AOP_PPSG" style="rounded=0;whiteSpace=wrap;html=1;" parent="1" vertex="1">
                    <mxGeometry x="356.89" y="80" width="120" height="20" as="geometry"/>
                </mxCell>
                <mxCell id="20" value="&lt;b&gt;idPrzedmiotu&lt;/b&gt; (FK)&lt;div&gt;&lt;b&gt;idPedagoga&lt;/b&gt; (FK)&lt;/div&gt;&lt;div&gt;&lt;b&gt;idStudenta&lt;/b&gt; (FK)&lt;br&gt;&lt;b&gt;idGrupy&lt;/b&gt; (FK)&lt;/div&gt;&lt;div&gt;godzTygZ: integer&lt;/div&gt;&lt;div&gt;godzTygL: integer&lt;/div&gt;" style="rounded=0;whiteSpace=wrap;html=1;align=left;" parent="1" vertex="1">
                    <mxGeometry x="356.89" y="100" width="120" height="100" as="geometry"/>
                </mxCell>
                <mxCell id="21" value="AOP_GD" style="rounded=0;whiteSpace=wrap;html=1;" parent="1" vertex="1">
                    <mxGeometry x="715.24" y="290" width="120" height="20" as="geometry"/>
                </mxCell>
                <mxCell id="22" value="&lt;b&gt;idPedagoga &lt;/b&gt;(FK)&lt;div&gt;&lt;b&gt;idWydzialu&amp;nbsp;&lt;/b&gt;(FK)&lt;/div&gt;&lt;div&gt;ilosc: integer&lt;/div&gt;" style="rounded=0;whiteSpace=wrap;html=1;" parent="1" vertex="1">
                    <mxGeometry x="715.24" y="310" width="120" height="50" as="geometry"/>
                </mxCell>
                <mxCell id="23" value="Wydzialy" style="rounded=0;whiteSpace=wrap;html=1;" parent="1" vertex="1">
                    <mxGeometry x="535.24" y="290" width="120" height="20" as="geometry"/>
                </mxCell>
                <mxCell id="24" value="&lt;b&gt;id&lt;/b&gt;&lt;div&gt;nazwa: varchar&lt;/div&gt;" style="rounded=0;whiteSpace=wrap;html=1;align=left;" parent="1" vertex="1">
                    <mxGeometry x="535.24" y="310" width="120" height="50" as="geometry"/>
                </mxCell>
                <mxCell id="26" value="" style="endArrow=none;html=1;exitX=0.5;exitY=0;exitDx=0;exitDy=0;entryX=1;entryY=0.5;entryDx=0;entryDy=0;" parent="1" source="21" target="7" edge="1">
                    <mxGeometry width="50" height="50" relative="1" as="geometry">
                        <mxPoint x="775.24" y="240" as="sourcePoint"/>
                        <mxPoint x="795.24" y="160" as="targetPoint"/>
                        <Array as="points">
                            <mxPoint x="775.24" y="170"/>
                        </Array>
                    </mxGeometry>
                </mxCell>
                <mxCell id="52" value="1..*" style="edgeLabel;html=1;align=center;verticalAlign=middle;resizable=0;points=[];" parent="26" vertex="1" connectable="0">
                    <mxGeometry x="-0.4943" relative="1" as="geometry">
                        <mxPoint as="offset"/>
                    </mxGeometry>
                </mxCell>
                <mxCell id="27" value="" style="endArrow=none;html=1;exitX=0.5;exitY=0;exitDx=0;exitDy=0;entryX=0.5;entryY=1;entryDx=0;entryDy=0;" parent="1" source="23" target="7" edge="1">
                    <mxGeometry width="50" height="50" relative="1" as="geometry">
                        <mxPoint x="525.24" y="430" as="sourcePoint"/>
                        <mxPoint x="575.24" y="380" as="targetPoint"/>
                    </mxGeometry>
                </mxCell>
                <mxCell id="50" value="1..*" style="edgeLabel;html=1;align=center;verticalAlign=middle;resizable=0;points=[];" parent="27" vertex="1" connectable="0">
                    <mxGeometry x="0.032" y="1" relative="1" as="geometry">
                        <mxPoint as="offset"/>
                    </mxGeometry>
                </mxCell>
                <mxCell id="28" value="" style="endArrow=none;html=1;exitX=1;exitY=0.25;exitDx=0;exitDy=0;entryX=0;entryY=0.25;entryDx=0;entryDy=0;" parent="1" source="24" target="22" edge="1">
                    <mxGeometry width="50" height="50" relative="1" as="geometry">
                        <mxPoint x="695.24" y="430" as="sourcePoint"/>
                        <mxPoint x="745.24" y="380" as="targetPoint"/>
                    </mxGeometry>
                </mxCell>
                <mxCell id="51" value="1..*" style="edgeLabel;html=1;align=center;verticalAlign=middle;resizable=0;points=[];" parent="28" vertex="1" connectable="0">
                    <mxGeometry x="-0.0316" relative="1" as="geometry">
                        <mxPoint as="offset"/>
                    </mxGeometry>
                </mxCell>
                <mxCell id="29" value="" style="endArrow=none;html=1;exitX=0.5;exitY=0;exitDx=0;exitDy=0;entryX=0.5;entryY=1;entryDx=0;entryDy=0;" parent="1" source="12" target="20" edge="1">
                    <mxGeometry width="50" height="50" relative="1" as="geometry">
                        <mxPoint x="196.89" y="300" as="sourcePoint"/>
                        <mxPoint x="246.89" y="250" as="targetPoint"/>
                    </mxGeometry>
                </mxCell>
                <mxCell id="62" value="1..*" style="edgeLabel;html=1;align=center;verticalAlign=middle;resizable=0;points=[];" parent="29" vertex="1" connectable="0">
                    <mxGeometry x="0.2711" relative="1" as="geometry">
                        <mxPoint as="offset"/>
                    </mxGeometry>
                </mxCell>
                <mxCell id="30" value="" style="endArrow=none;html=1;exitX=1;exitY=0.375;exitDx=0;exitDy=0;exitPerimeter=0;entryX=0;entryY=0.25;entryDx=0;entryDy=0;" parent="1" source="20" target="7" edge="1">
                    <mxGeometry width="50" height="50" relative="1" as="geometry">
                        <mxPoint x="516.89" y="20" as="sourcePoint"/>
                        <mxPoint x="566.89" y="-30" as="targetPoint"/>
                    </mxGeometry>
                </mxCell>
                <mxCell id="47" value="1..*" style="edgeLabel;html=1;align=center;verticalAlign=middle;resizable=0;points=[];" parent="30" vertex="1" connectable="0">
                    <mxGeometry x="-0.0745" relative="1" as="geometry">
                        <mxPoint as="offset"/>
                    </mxGeometry>
                </mxCell>
                <mxCell id="31" value="" style="endArrow=none;html=1;exitX=1;exitY=0.5;exitDx=0;exitDy=0;entryX=0;entryY=0.5;entryDx=0;entryDy=0;" parent="1" source="9" target="20" edge="1">
                    <mxGeometry width="50" height="50" relative="1" as="geometry">
                        <mxPoint x="276.89" y="250" as="sourcePoint"/>
                        <mxPoint x="326.89" y="200" as="targetPoint"/>
                    </mxGeometry>
                </mxCell>
                <mxCell id="46" value="1..*" style="edgeLabel;html=1;align=center;verticalAlign=middle;resizable=0;points=[];" parent="31" vertex="1" connectable="0">
                    <mxGeometry x="-0.0153" y="-1" relative="1" as="geometry">
                        <mxPoint as="offset"/>
                    </mxGeometry>
                </mxCell>
                <mxCell id="34" value="2. Model Bazy Danych" style="text;strokeColor=none;fillColor=none;html=1;fontSize=24;fontStyle=1;verticalAlign=middle;align=center;" parent="1" vertex="1">
                    <mxGeometry x="80" width="100" height="40" as="geometry"/>
                </mxCell>
                <mxCell id="35" value="" style="endArrow=none;html=1;exitX=1;exitY=0.5;exitDx=0;exitDy=0;entryX=0;entryY=0.5;entryDx=0;entryDy=0;" parent="1" source="11" target="24" edge="1">
                    <mxGeometry width="50" height="50" relative="1" as="geometry">
                        <mxPoint x="606.89" y="450" as="sourcePoint"/>
                        <mxPoint x="656.89" y="400" as="targetPoint"/>
                    </mxGeometry>
                </mxCell>
                <mxCell id="53" value="1..*" style="edgeLabel;html=1;align=center;verticalAlign=middle;resizable=0;points=[];" parent="35" vertex="1" connectable="0">
                    <mxGeometry x="0.0069" y="-1" relative="1" as="geometry">
                        <mxPoint as="offset"/>
                    </mxGeometry>
                </mxCell>
                <mxCell id="48" value="" style="endArrow=none;html=1;exitX=0.5;exitY=0;exitDx=0;exitDy=0;entryX=1.01;entryY=0.152;entryDx=0;entryDy=0;entryPerimeter=0;" parent="1" source="8" target="7" edge="1">
                    <mxGeometry width="50" height="50" relative="1" as="geometry">
                        <mxPoint x="595.24" y="80" as="sourcePoint"/>
                        <mxPoint x="695.24" y="130" as="targetPoint"/>
                        <Array as="points">
                            <mxPoint x="595.24" y="50"/>
                            <mxPoint x="695.24" y="50"/>
                            <mxPoint x="695.24" y="128"/>
                        </Array>
                    </mxGeometry>
                </mxCell>
                <mxCell id="49" value="1..1" style="edgeLabel;html=1;align=center;verticalAlign=middle;resizable=0;points=[];" parent="48" vertex="1" connectable="0">
                    <mxGeometry x="-0.2857" y="-2" relative="1" as="geometry">
                        <mxPoint as="offset"/>
                    </mxGeometry>
                </mxCell>
                <mxCell id="54" value="W bazie danych nie ma po co trzymać reszty informacji, ponieważ będą one obliczane na bieżąco - z poziomu front-endu aplikacji.&lt;div&gt;&lt;br&gt;&lt;/div&gt;&lt;div&gt;Wniosek: do działania aplikacji wystarczy informacja o ilości tygodni prowadzenia przedmiotu oraz o ilości godzin prowadzenia danego przedmiotu przez danego pedagoga, dla danego studenta&lt;/div&gt;" style="text;html=1;align=left;verticalAlign=middle;whiteSpace=wrap;rounded=0;" parent="1" vertex="1">
                    <mxGeometry x="440" y="480" width="320" height="120" as="geometry"/>
                </mxCell>
                <mxCell id="58" value="Grupa" style="rounded=0;whiteSpace=wrap;html=1;" parent="1" vertex="1">
                    <mxGeometry x="173" y="250" width="120" height="20" as="geometry"/>
                </mxCell>
                <mxCell id="59" value="&lt;b&gt;id&lt;/b&gt;&lt;div&gt;iloscMiejsc: integer&lt;/div&gt;&lt;div&gt;nazwa: varchar&lt;/div&gt;" style="rounded=0;whiteSpace=wrap;html=1;align=left;" parent="1" vertex="1">
                    <mxGeometry x="173" y="270" width="120" height="60" as="geometry"/>
                </mxCell>
                <mxCell id="60" value="GrupyPrzedmioty" style="rounded=0;whiteSpace=wrap;html=1;" parent="1" vertex="1">
                    <mxGeometry x="14" y="180" width="120" height="20" as="geometry"/>
                </mxCell>
                <mxCell id="61" value="GrupyStudenci" style="rounded=0;whiteSpace=wrap;html=1;" parent="1" vertex="1">
                    <mxGeometry x="173" y="370" width="120" height="20" as="geometry"/>
                </mxCell>
                <mxCell id="64" value="&lt;b&gt;idPrzedmiotu&lt;/b&gt; (FK)&lt;div&gt;&lt;b&gt;idGrupy&lt;/b&gt; (FK)&lt;/div&gt;" style="rounded=0;whiteSpace=wrap;html=1;" parent="1" vertex="1">
                    <mxGeometry x="14" y="200" width="120" height="40" as="geometry"/>
                </mxCell>
                <mxCell id="65" value="&lt;b&gt;idStudenta&lt;/b&gt; (FK)&lt;div&gt;&lt;b&gt;idGrupy&lt;/b&gt; (FK)&lt;/div&gt;" style="rounded=0;whiteSpace=wrap;html=1;" parent="1" vertex="1">
                    <mxGeometry x="173" y="390" width="120" height="40" as="geometry"/>
                </mxCell>
                <mxCell id="66" value="" style="endArrow=none;html=1;entryX=0;entryY=0.25;entryDx=0;entryDy=0;exitX=1;exitY=0.5;exitDx=0;exitDy=0;" parent="1" source="59" target="11" edge="1">
                    <mxGeometry width="50" height="50" relative="1" as="geometry">
                        <mxPoint x="316.89" y="310" as="sourcePoint"/>
                        <mxPoint x="356.89" y="440" as="targetPoint"/>
                    </mxGeometry>
                </mxCell>
                <mxCell id="67" value="1..*" style="edgeLabel;html=1;align=center;verticalAlign=middle;resizable=0;points=[];" parent="66" vertex="1" connectable="0">
                    <mxGeometry x="-0.0926" y="-3" relative="1" as="geometry">
                        <mxPoint as="offset"/>
                    </mxGeometry>
                </mxCell>
                <mxCell id="68" value="" style="endArrow=none;html=1;exitX=0.5;exitY=1;exitDx=0;exitDy=0;entryX=0;entryY=0.5;entryDx=0;entryDy=0;" parent="1" source="64" target="59" edge="1">
                    <mxGeometry width="50" height="50" relative="1" as="geometry">
                        <mxPoint x="4" y="340" as="sourcePoint"/>
                        <mxPoint x="54" y="290" as="targetPoint"/>
                        <Array as="points">
                            <mxPoint x="74" y="300"/>
                        </Array>
                    </mxGeometry>
                </mxCell>
                <mxCell id="69" value="1..*" style="edgeLabel;html=1;align=center;verticalAlign=middle;resizable=0;points=[];" parent="68" vertex="1" connectable="0">
                    <mxGeometry x="-0.645" y="-1" relative="1" as="geometry">
                        <mxPoint as="offset"/>
                    </mxGeometry>
                </mxCell>
                <mxCell id="70" value="" style="endArrow=none;html=1;exitX=0.5;exitY=0;exitDx=0;exitDy=0;entryX=0;entryY=0.5;entryDx=0;entryDy=0;" parent="1" source="60" target="9" edge="1">
                    <mxGeometry width="50" height="50" relative="1" as="geometry">
                        <mxPoint x="64" y="140" as="sourcePoint"/>
                        <mxPoint x="114" y="90" as="targetPoint"/>
                        <Array as="points">
                            <mxPoint x="74" y="150"/>
                        </Array>
                    </mxGeometry>
                </mxCell>
                <mxCell id="71" value="1..*" style="edgeLabel;html=1;align=center;verticalAlign=middle;resizable=0;points=[];" parent="70" vertex="1" connectable="0">
                    <mxGeometry x="-0.8188" y="-1" relative="1" as="geometry">
                        <mxPoint as="offset"/>
                    </mxGeometry>
                </mxCell>
                <mxCell id="72" value="" style="endArrow=none;html=1;exitX=1;exitY=0.25;exitDx=0;exitDy=0;entryX=0;entryY=0.75;entryDx=0;entryDy=0;" parent="1" source="65" target="11" edge="1">
                    <mxGeometry width="50" height="50" relative="1" as="geometry">
                        <mxPoint x="296.89" y="490" as="sourcePoint"/>
                        <mxPoint x="346.89" y="440" as="targetPoint"/>
                    </mxGeometry>
                </mxCell>
                <mxCell id="74" value="1..*" style="edgeLabel;html=1;align=center;verticalAlign=middle;resizable=0;points=[];" parent="72" vertex="1" connectable="0">
                    <mxGeometry x="-0.1149" y="1" relative="1" as="geometry">
                        <mxPoint as="offset"/>
                    </mxGeometry>
                </mxCell>
                <mxCell id="75" value="" style="endArrow=none;html=1;exitX=0.5;exitY=0;exitDx=0;exitDy=0;entryX=0.5;entryY=1;entryDx=0;entryDy=0;" parent="1" source="61" target="59" edge="1">
                    <mxGeometry width="50" height="50" relative="1" as="geometry">
                        <mxPoint x="194" y="510" as="sourcePoint"/>
                        <mxPoint x="244" y="460" as="targetPoint"/>
                    </mxGeometry>
                </mxCell>
                <mxCell id="76" value="1..*" style="edgeLabel;html=1;align=center;verticalAlign=middle;resizable=0;points=[];" parent="75" vertex="1" connectable="0">
                    <mxGeometry x="-0.0222" y="-2" relative="1" as="geometry">
                        <mxPoint as="offset"/>
                    </mxGeometry>
                </mxCell>
                <mxCell id="77" value="" style="endArrow=none;html=1;exitX=1;exitY=0.25;exitDx=0;exitDy=0;entryX=0;entryY=0.75;entryDx=0;entryDy=0;" parent="1" source="59" target="20" edge="1">
                    <mxGeometry width="50" height="50" relative="1" as="geometry">
                        <mxPoint x="296.89" y="240" as="sourcePoint"/>
                        <mxPoint x="346.89" y="190" as="targetPoint"/>
                    </mxGeometry>
                </mxCell>
                <mxCell id="78" value="1..*" style="edgeLabel;html=1;align=center;verticalAlign=middle;resizable=0;points=[];" parent="77" vertex="1" connectable="0">
                    <mxGeometry x="-0.0909" relative="1" as="geometry">
                        <mxPoint as="offset"/>
                    </mxGeometry>
                </mxCell>
            </root>
        </mxGraphModel>
    </diagram>
</mxfile>